<?xml version="1.0" encoding="iso-8859-1"?>
<!-- Generator: Adobe Illustrator 16.0.0, SVG Export Plug-In . SVG Version: 6.00 Build 0)  -->
<!DOCTYPE svg PUBLIC "-//W3C//DTD SVG 1.1//EN" "http://www.w3.org/Graphics/SVG/1.1/DTD/svg11.dtd">
<svg version="1.1" id="Capa_1" xmlns="http://www.w3.org/2000/svg" xmlns:xlink="http://www.w3.org/1999/xlink" x="0px" y="0px"
	 width="783.88px" height="783.88px" viewBox="0 0 783.88 783.88" style="enable-background:new 0 0 783.88 783.88;"
	 xml:space="preserve">
<g>
	<g id="aim">
		<g>
			<path d="M696.708,688.237C648.667,563.792,497.92,474.79,490.931,470.726c-12.544-6.695-24.132-16.021-30.459-21.446
				c-0.331-8.24,1.232-11.605,1.803-12.121c0,0,0.81-0.496,3.256-0.496c5.315,0,11.587,2.336,14.861,3.771
				c16.332,6.088,39.838,7.356,56.668,7.356c4.91,0,8.203-0.11,8.276-0.129c87.016-0.036,141.183-53.173,143.445-55.436
				c5.628-5.628,6.989-14.217,3.402-21.317l-34.928-69.065c-2.244-4.451-6.217-7.798-10.98-9.27
				c-4.782-1.453-9.933-0.938-14.31,1.471c-44.124,24.352-82.676,37.208-111.46,37.208c-25.787,0-35.682-10.134-37.613-12.452
				c-6.695-13.298-24.462-48.152-24.462-48.152c-0.681-1.324-1.509-2.557-2.465-3.679c-11.128-12.875-26.357-19.662-44.069-19.662
				c-23.12,0-43.112,11.587-44.915,12.672c-88.818,50.268-89.039,192.921-88.966,197.593
				c-10.318,149.128-171.31,191.91-178.17,193.657c-8.185,2.115-13.905,9.454-13.905,17.859c0,3.973,0,11.403,40.243,103.735
				c2.961,6.786,9.638,11.054,16.848,11.054c1.104,0,2.225-0.092,3.329-0.312c137.247-25.198,231.804-143.316,260.92-184.259
				c140.005,71.144,178.998,159.502,179.365,160.349c2.189,5.241,6.695,9.196,12.195,10.686c5.518,1.416,11.385,0.331,15.928-3.127
				l75.906-57.716C697.187,704.552,699.652,695.889,696.708,688.237z M609.601,724.932
				c-21.354-34.836-77.471-107.12-200.646-165.793c-8.406-3.991-18.522-1.066-23.488,6.843
				c-0.938,1.489-92.111,144.548-231.528,178.373c-10.337-24.003-20.453-48.3-26.357-63.492
				c48.906-17.822,177.214-78.096,187.146-222.093c0-1.25,0.092-126.983,70.665-166.932c3.66-2.134,15.542-7.707,26.467-7.707
				c6.272,0,11.073,1.766,14.936,5.555c4.212,8.276,18.761,36.804,24.48,48.115c1.857,3.108,19.515,30.293,69.193,30.293
				c31.47,0,69.212-11.054,112.398-32.886l19.882,39.324c-17.271,12.93-55.785,36.399-108.277,36.399
				c-0.166,0-3.035,0.11-7.431,0.11c-18.944,0-35.333-1.876-42.414-4.451c-1.453-0.681-14.604-6.677-29.115-6.677
				c-16.075,0-25.677,7.081-30.9,13.022c-9.509,10.796-12.801,26.356-10.061,47.582c0.533,4.175,2.483,8.019,5.499,10.925
				c0.828,0.772,20.287,19.35,42.929,31.434c1.398,0.809,135.242,79.787,184.057,186.023L609.601,724.932z M486.424,241.128
				c66.49,0,120.583-54.075,120.583-120.546C607.007,54.093,552.915,0,486.424,0c-66.472,0-120.546,54.093-120.546,120.583
				C365.878,187.036,419.971,241.128,486.424,241.128z M486.424,36.785c46.203,0,83.798,37.595,83.798,83.797
				c0,46.184-37.577,83.761-83.798,83.761c-46.184,0-83.761-37.577-83.761-83.761C402.664,74.38,440.241,36.785,486.424,36.785z"/>
		</g>
	</g>
</g>
<g>
</g>
<g>
</g>
<g>
</g>
<g>
</g>
<g>
</g>
<g>
</g>
<g>
</g>
<g>
</g>
<g>
</g>
<g>
</g>
<g>
</g>
<g>
</g>
<g>
</g>
<g>
</g>
<g>
</g>
</svg>
