<?xml version="1.0" encoding="iso-8859-1"?>
<!-- Generator: Adobe Illustrator 16.0.0, SVG Export Plug-In . SVG Version: 6.00 Build 0)  -->
<!DOCTYPE svg PUBLIC "-//W3C//DTD SVG 1.1//EN" "http://www.w3.org/Graphics/SVG/1.1/DTD/svg11.dtd">
<svg version="1.1" id="Capa_1" xmlns="http://www.w3.org/2000/svg" xmlns:xlink="http://www.w3.org/1999/xlink" x="0px" y="0px"
	 width="612.002px" height="612.002px" viewBox="0 0 612.002 612.002" style="enable-background:new 0 0 612.002 612.002;"
	 xml:space="preserve">
<g>
	<g id="blogger">
		<g>
			<path d="M202.468,270.167h103.834c30.324,0,55.008-24.685,55.008-55.023c0-29.552-24.156-52.696-55.008-52.696H202.468
				c-30.853,0-55.008,23.144-55.008,52.696C147.46,245.482,172.145,270.167,202.468,270.167z M202.468,192.681h103.834
				c12.305,0,24.776,7.725,24.776,22.463c0,13.665-11.11,24.791-24.776,24.791H202.468c-13.665,0-24.776-11.11-24.776-24.791
				C177.692,200.391,190.164,192.681,202.468,192.681z M395.096,361.817H199.475c-28.676,0-52,23.325-52,51.985
				c0,28.661,23.324,51.97,52,51.97h195.621c28.676,0,52-23.309,52-51.97C447.081,385.143,423.756,361.817,395.096,361.817z
				 M395.096,435.54H199.475c-12.002,0-21.768-9.75-21.768-21.737c0-12.002,9.765-21.752,21.768-21.752h195.621
				c12.002,0,21.768,9.765,21.768,21.752C416.848,425.79,407.098,435.54,395.096,435.54z M610.383,275.987
				c-3.779-43.112-50.065-58.41-74.025-60.465c-4.641-0.393-13.74-0.469-21.979-0.348v-11.231
				c0-107.961-92.784-202.665-198.568-202.665H194.487C89.065,1.278,0,94.092,0,203.943v211.674
				c0,107.235,87.236,194.472,194.487,194.472l117.514-0.061c1.437,0.438,2.933,0.68,4.475,0.68h124.332
				c0.136,0,1.239,0.016,1.375,0.016c58.592,0,159.962-36.249,168.261-172.554C610.579,433.212,613.92,316.348,610.383,275.987z
				 M580.24,436.795c-8.51,139.645-124.83,143.666-138.072,143.666l-121.959-0.016c-1.436-0.408-2.933-0.62-4.414-0.62H194.472
				c-90.562,0.016-164.239-73.661-164.239-164.224V203.943c0-93.464,75.219-172.432,164.254-172.432h121.324
				c89.686,0,168.351,80.57,168.351,172.432v26.635c0,4.082,1.647,7.997,4.58,10.838c2.918,2.857,6.894,4.459,10.96,4.263
				c0.09-0.015,25.546-0.786,34.057-0.045c12.229,1.058,44.412,9.04,46.513,32.999C583.642,317.239,580.256,436.1,580.24,436.795z"
				/>
		</g>
	</g>
</g>
<g>
</g>
<g>
</g>
<g>
</g>
<g>
</g>
<g>
</g>
<g>
</g>
<g>
</g>
<g>
</g>
<g>
</g>
<g>
</g>
<g>
</g>
<g>
</g>
<g>
</g>
<g>
</g>
<g>
</g>
</svg>
