<?xml version="1.0" encoding="iso-8859-1"?>
<!-- Generator: Adobe Illustrator 16.0.0, SVG Export Plug-In . SVG Version: 6.00 Build 0)  -->
<!DOCTYPE svg PUBLIC "-//W3C//DTD SVG 1.1//EN" "http://www.w3.org/Graphics/SVG/1.1/DTD/svg11.dtd">
<svg version="1.1" id="Capa_1" xmlns="http://www.w3.org/2000/svg" xmlns:xlink="http://www.w3.org/1999/xlink" x="0px" y="0px"
	 width="612.005px" height="612.004px" viewBox="0 0 612.005 612.004" style="enable-background:new 0 0 612.005 612.004;"
	 xml:space="preserve">
<g>
	<g id="deviantart">
		<g>
			<path d="M600.421,361.456c-50.119-138.464-249.138-157.501-301.719-160.117l-0.817-48.383
				c-0.102-5.959-4.313-11.05-10.144-12.274c-2.769-0.574-5.908-0.855-9.621-0.855c-24.574,0-71.095,13.27-73.073,13.844
				c-5.474,1.569-9.238,6.571-9.238,12.262v40.536c-82.845,17.352-109.014,49.263-132.223,77.551
				c-3.445,4.198-6.839,8.332-10.386,12.351C-14.514,373.002,1.41,458.286,2.124,461.883c1.187,5.972,6.418,10.284,12.517,10.284
				h270.484c3.394,0,6.635-1.34,9.034-3.737c2.399-2.398,3.738-5.641,3.726-9.034l-0.268-175.646
				c77.232-2.08,100.109,10.348,129.137,26.438c31.069,17.212,49.021,52.146,57.315,72.677H399.96v-51.037
				c0-4.887-2.794-9.34-7.185-11.471c-27.164-13.193-67.457-14.01-69.154-14.048c-3.445,0.128-6.725,1.276-9.161,3.663
				c-2.438,2.398-3.815,5.678-3.815,9.097v140.352c0,7.043,5.717,12.759,12.76,12.759H594.08c5.244,0,9.952-3.202,11.879-8.089
				C618.984,430.93,608.038,382.458,600.421,361.456z M584.625,446.637H336.163V332.62c10.514,0.982,25.595,3.102,38.277,7.656
				v55.312c0,7.043,5.717,12.76,12.76,12.76h114.834c3.955,0,7.693-1.851,10.118-4.989c2.41-3.152,3.228-7.235,2.206-11.062
				c-0.804-2.998-20.274-74.004-75.241-104.459c-36.989-20.504-65.481-33.11-154.834-29.181c-6.839,0.293-12.223,5.92-12.211,12.759
				l0.268,175.198H25.984c-1.633-23.005-0.153-80.741,46.355-133.373c3.751-4.249,7.349-8.625,10.986-13.053
				c22.418-27.33,45.602-55.592,127.568-70.687c6.061-1.11,10.45-6.392,10.45-12.542v-41.276
				c14.201-3.713,36.453-8.906,51.241-10.093l0.817,48.319c0.115,6.916,5.729,12.479,12.644,12.542
				c2.399,0.013,239.76,3.828,290.389,143.695C582.902,388.007,589.958,422.407,584.625,446.637z M215.664,270.15
				c-3.56-2.36-8.038-2.807-11.968-1.174c-3.853,1.595-94.495,40.064-109.743,124.352c-0.676,3.726,0.332,7.553,2.756,10.45
				c2.424,2.909,6.01,4.581,9.799,4.581h102.074c7.043,0,12.759-5.716,12.759-12.759V280.766
				C221.329,276.504,219.198,272.523,215.664,270.15z M195.81,382.839h-72.881c13.92-41.213,50.718-68.096,72.881-81.111V382.839z"
				/>
		</g>
	</g>
</g>
<g>
</g>
<g>
</g>
<g>
</g>
<g>
</g>
<g>
</g>
<g>
</g>
<g>
</g>
<g>
</g>
<g>
</g>
<g>
</g>
<g>
</g>
<g>
</g>
<g>
</g>
<g>
</g>
<g>
</g>
</svg>
