<?xml version="1.0" encoding="iso-8859-1"?>
<!-- Generator: Adobe Illustrator 16.0.0, SVG Export Plug-In . SVG Version: 6.00 Build 0)  -->
<!DOCTYPE svg PUBLIC "-//W3C//DTD SVG 1.1//EN" "http://www.w3.org/Graphics/SVG/1.1/DTD/svg11.dtd">
<svg version="1.1" id="Capa_1" xmlns="http://www.w3.org/2000/svg" xmlns:xlink="http://www.w3.org/1999/xlink" x="0px" y="0px"
	 width="612.016px" height="612.016px" viewBox="0 0 612.016 612.016" style="enable-background:new 0 0 612.016 612.016;"
	 xml:space="preserve">
<g>
	<g id="dribbble">
		<g>
			<path d="M516.26,84.024L502.3,70.799l-0.46,0.797C446.764,25.454,378.049,0,306.008,0c-39.124,0-77.205,7.754-113.54,22.358
				l-0.414-0.414l-9.685,4.275C92.261,66.095,26.504,147.253,6.49,243.308L4.007,255.23l0.598,0.276
				C1.801,272.24,0.008,289.143,0.008,306c0,89.603,38.725,173.336,106.536,231.676l-0.138,0.322l9.226,7.341
				c54.77,43.613,120.604,66.677,190.376,66.677c36.84,0,73.189-6.789,108.437-20.198l9.685-3.754v-0.261
				c100.529-40.764,169.521-130.319,184.369-238.879l0.828,0.291l1.517-19.86c0.598-7.724,1.165-15.447,1.165-23.323
				C612.008,221.378,578.003,142.549,516.26,84.024z M577.374,306v1.532c-30.648-10.436-70.691-15.723-108.099-15.723
				c-32.457,0-64.286,4.03-95.824,11.999c-6.084-16.29-12.168-32.197-19.095-47.598l0.996-0.444l-0.337-0.721
				c62.064-31.047,113.264-77.358,151.437-135.331C553.621,170.715,577.374,236.167,577.374,306z M485.642,98.062
				c-35.553,55.797-84.913,100.223-144.035,129.661c-33.208-66.11-75.534-126.979-126.151-181.396
				c29.178-10.237,59.505-15.677,90.553-15.677C372.332,30.649,435.516,54.663,485.642,98.062z M185.189,58.724
				c51.919,54.126,95.134,115.164,128.695,181.703c-42.633,16.979-87.564,25.576-133.768,25.576
				c-48.854,0-96.161-9.578-140.832-28.458C59.191,159.804,112.72,94.185,185.189,58.724z M30.657,306
				c0-12.566,1.195-25.147,2.927-37.683c46.617,18.803,95.809,28.335,146.533,28.335c50.74,0,100.008-9.655,146.748-28.534
				c6.528,14.42,12.658,29.27,18.42,44.533c-98.168,33.146-178.852,103.287-225.362,195.938
				C62.992,456.426,30.657,383.665,30.657,306z M144.211,528.604c42.449-88.745,118.489-156.02,211.509-187.22
				c24.167,72.761,36.963,148.448,38.066,225.362c-28.642,9.7-58.126,14.619-87.779,14.619
				C247.223,581.366,191.534,563.161,144.211,528.604z M423.654,554.778c-2.161-75.565-15.11-149.92-38.74-221.577
				c63.934-15.646,131.224-13.593,193.87,5.854C567.521,435.155,509.594,515.486,423.654,554.778z"/>
		</g>
	</g>
</g>
<g>
</g>
<g>
</g>
<g>
</g>
<g>
</g>
<g>
</g>
<g>
</g>
<g>
</g>
<g>
</g>
<g>
</g>
<g>
</g>
<g>
</g>
<g>
</g>
<g>
</g>
<g>
</g>
<g>
</g>
</svg>
