<?xml version="1.0" encoding="iso-8859-1"?>
<!-- Generator: Adobe Illustrator 16.0.0, SVG Export Plug-In . SVG Version: 6.00 Build 0)  -->
<!DOCTYPE svg PUBLIC "-//W3C//DTD SVG 1.1//EN" "http://www.w3.org/Graphics/SVG/1.1/DTD/svg11.dtd">
<svg version="1.1" id="Capa_1" xmlns="http://www.w3.org/2000/svg" xmlns:xlink="http://www.w3.org/1999/xlink" x="0px" y="0px"
	 width="792px" height="792px" viewBox="0 0 792 792" style="enable-background:new 0 0 792 792;" xml:space="preserve">
<g>
	<g id="forrst">
		<g>
			<path d="M659.241,651.388L400.753,0L132.759,651.388H334.69V792l124.166-0.387l-1.053-140.226H659.241L659.241,651.388z
				 M185.205,616.248l214.968-522.46l207.326,522.46H457.681v-6.712l95.703-47.86l-15.727-31.433l-79.994,39.989v-48.563
				l60.562-30.29l-15.725-31.433l-44.855,22.419v-59.422h-122.99v91.961l-61.231-36.738l-18.08,30.133l79.329,47.597v60.335H185.205
				V616.248z M369.83,756.755V458.118h52.71v158.13h-0.123l0.123,16.99v0.58l0,0l0.914,122.761L369.83,756.755z"/>
		</g>
	</g>
</g>
<g>
</g>
<g>
</g>
<g>
</g>
<g>
</g>
<g>
</g>
<g>
</g>
<g>
</g>
<g>
</g>
<g>
</g>
<g>
</g>
<g>
</g>
<g>
</g>
<g>
</g>
<g>
</g>
<g>
</g>
</svg>
