<?xml version="1.0" encoding="iso-8859-1"?>
<!-- Generator: Adobe Illustrator 16.0.0, SVG Export Plug-In . SVG Version: 6.00 Build 0)  -->
<!DOCTYPE svg PUBLIC "-//W3C//DTD SVG 1.1//EN" "http://www.w3.org/Graphics/SVG/1.1/DTD/svg11.dtd">
<svg version="1.1" id="Capa_1" xmlns="http://www.w3.org/2000/svg" xmlns:xlink="http://www.w3.org/1999/xlink" x="0px" y="0px"
	 width="612.002px" height="612.002px" viewBox="0 0 612.002 612.002" style="enable-background:new 0 0 612.002 612.002;"
	 xml:space="preserve">
<g>
	<g id="gdrive">
		<g>
			<path d="M610.169,406.376c-2.431-4.196-6.912-6.775-11.746-6.775l-377.276,0.067c-4.888,0-9.41,2.635-11.827,6.898
				l-78.255,140.948l-4.78,8.352c-2.444,4.291-2.376,9.546,0.163,13.769c2.553,4.21,6.966,7.062,12.099,6.545l374.248,0.285
				c4.875,0,9.369-2.607,11.8-6.844l85.615-149.68C612.613,415.731,612.6,410.559,610.169,406.376z M504.919,549.294l-343.505-0.489
				l67.691-121.966L575,426.771L504.919,549.294z M411.469,376.476l1.616,2.811c2.431,4.209,6.912,6.803,11.772,6.803h0.055
				l3.191-0.014l158.085,0.014h0.055l9.654-0.04c4.848-0.027,9.315-2.607,11.719-6.817c2.417-4.209,2.403-9.369-0.014-13.564
				L419.006,42.299c-2.444-4.196-6.912-6.762-11.746-6.762l-172.547,0.706c-4.834,0.027-9.302,2.621-11.705,6.83
				s-2.39,9.356,0.027,13.552L411.469,376.476z M399.466,62.708l172.791,296.224l-139.604-0.014L258.394,63.292L399.466,62.708z
				 M287.263,232.729c2.444-4.223,2.431-9.438-0.027-13.647L213.787,75.255l-4.848-8.31c-2.43-4.168-6.898-6.735-11.732-6.735
				c0,0-0.014,0-0.027,0c-4.834,0.014-9.301,2.594-11.732,6.79L3.464,388.045l-1.629,2.797c-2.458,4.223-2.444,9.451,0.027,13.674
				l86.81,148.96c2.431,4.183,6.912,6.749,11.746,6.749h0.013c4.848-0.014,9.329-2.594,11.746-6.789L285.633,235.54L287.263,232.729
				z M100.173,519.23l-70.896-121.64l167.577-295.789l63.155,124.029L100.173,519.23z"/>
		</g>
	</g>
</g>
<g>
</g>
<g>
</g>
<g>
</g>
<g>
</g>
<g>
</g>
<g>
</g>
<g>
</g>
<g>
</g>
<g>
</g>
<g>
</g>
<g>
</g>
<g>
</g>
<g>
</g>
<g>
</g>
<g>
</g>
</svg>
