<?xml version="1.0" encoding="iso-8859-1"?>
<!-- Generator: Adobe Illustrator 16.0.0, SVG Export Plug-In . SVG Version: 6.00 Build 0)  -->
<!DOCTYPE svg PUBLIC "-//W3C//DTD SVG 1.1//EN" "http://www.w3.org/Graphics/SVG/1.1/DTD/svg11.dtd">
<svg version="1.1" id="Capa_1" xmlns="http://www.w3.org/2000/svg" xmlns:xlink="http://www.w3.org/1999/xlink" x="0px" y="0px"
	 width="612px" height="612px" viewBox="0 0 612 612" style="enable-background:new 0 0 612 612;" xml:space="preserve">
<g>
	<g id="picassa">
		<g>
			<path d="M569.957,415.62H191.574c-7.736,0-14.014,6.264-14.014,14.014v140.143c0,5.508,3.223,10.496,8.226,12.766
				c33.578,15.205,71.402,29.275,120.368,29.275c119.961,0,225.908-67.533,276.5-176.27c2.018-4.344,1.682-9.418-0.883-13.453
				C579.207,418.071,574.75,415.62,569.957,415.62z M306.168,583.79c-39.8,0-71.935-10.707-100.58-23.123v-117.02h341.428
				C497.952,530.647,407.575,583.79,306.168,583.79z M406.216,243.666c2.648,2.494,6.096,3.798,9.585,3.798
				c1.878,0,3.784-0.378,5.578-1.164c5.115-2.214,8.437-7.273,8.437-12.851V37.25c0-5.521-3.237-10.524-8.282-12.781
				c-38.96-17.49-71.305-24.287-115.365-24.287c-36.969,0-73.603,6.811-108.848,20.25c-4.513,1.724-7.82,5.648-8.759,10.385
				c-0.925,4.75,0.645,9.642,4.176,12.935L406.216,243.666z M306.168,28.211c36.577,0,64.171,5.185,95.619,18.247v154.661
				L229.006,39.324C254.26,31.953,280.13,28.211,306.168,28.211z M463.464,50.83c-4.345-2.327-9.6-2.172-13.805,0.392
				c-4.218,2.551-6.782,7.105-6.769,12.024l0.939,324.374c0.014,7.721,6.292,13.971,14.014,13.971h126.128
				c5.97,0,11.295-3.797,13.243-9.445C608.538,359.353,612,339.228,612,305.986C612,200.39,552.313,97.848,463.464,50.83z
				 M573.882,373.577H471.816l-0.827-285.554c68.39,46.345,112.982,130.949,112.982,217.991
				C583.972,333.034,581.715,349.122,573.882,373.577z M271.301,159.51c2.733-2.593,4.316-6.194,4.358-9.979
				c0.042-3.784-1.429-7.413-4.106-10.09l-98.1-98.1c-4.344-4.358-11.015-5.339-16.438-2.495C57.22,91.485,0,187.931,0,303.52
				c0,24.749,3.307,50.213,9.824,75.706c1.233,4.82,4.919,8.617,9.698,9.99c1.275,0.365,2.579,0.547,3.868,0.547
				c3.545,0,7.007-1.346,9.656-3.854L271.301,159.51z M28.028,303.52c0-101.295,48.349-186.333,133.051-234.906l80.498,80.484
				L31.882,348.351C29.318,333.216,28.028,318.192,28.028,303.52z M155.319,304.767c-5.003-2.284-10.875-1.416-15.023,2.201
				l-112.113,98.1c-4.457,3.91-5.984,10.215-3.784,15.723c26.627,67.002,65.194,115.072,117.887,146.953
				c2.229,1.359,4.737,2.02,7.259,2.02c2.369,0,4.737-0.604,6.881-1.809c4.415-2.48,7.133-7.146,7.133-12.207v-238.24
				C163.546,312.026,160.322,307.038,155.319,304.767z M135.517,529.317c-34.727-26.473-61.003-62.014-81.324-109.746l81.324-71.15
				V529.317z"/>
		</g>
	</g>
</g>
<g>
</g>
<g>
</g>
<g>
</g>
<g>
</g>
<g>
</g>
<g>
</g>
<g>
</g>
<g>
</g>
<g>
</g>
<g>
</g>
<g>
</g>
<g>
</g>
<g>
</g>
<g>
</g>
<g>
</g>
</svg>
