<?xml version="1.0" encoding="iso-8859-1"?>
<!-- Generator: Adobe Illustrator 16.0.0, SVG Export Plug-In . SVG Version: 6.00 Build 0)  -->
<!DOCTYPE svg PUBLIC "-//W3C//DTD SVG 1.1//EN" "http://www.w3.org/Graphics/SVG/1.1/DTD/svg11.dtd">
<svg version="1.1" id="Capa_1" xmlns="http://www.w3.org/2000/svg" xmlns:xlink="http://www.w3.org/1999/xlink" x="0px" y="0px"
	 width="637.277px" height="637.277px" viewBox="0 0 637.277 637.277" style="enable-background:new 0 0 637.277 637.277;"
	 xml:space="preserve">
<g>
	<g id="windows">
		<g>
			<path d="M280.692,328.831H27.739c-8.335,0-15.1,6.765-15.1,15.101v202.369c0,7.58,5.632,13.997,13.152,14.979l252.954,32.994
				c0.649,0.075,1.299,0.12,1.948,0.12c3.639,0,7.188-1.313,9.966-3.76c3.261-2.869,5.134-7.006,5.134-11.34V343.932
				C295.792,335.596,289.028,328.831,280.692,328.831z M265.593,562.11L42.838,533.043V359.031h222.754V562.11L265.593,562.11z
				 M619.505,3.745c-3.262-2.869-7.61-4.167-11.914-3.624L329.329,36.406c-7.52,0.981-13.152,7.384-13.152,14.979v241.961
				c0,8.335,6.765,15.1,15.1,15.1h278.262c8.335,0,15.1-6.765,15.1-15.1V15.1C624.639,10.751,622.767,6.614,619.505,3.745z
				 M594.438,278.247H346.377V64.643l248.062-32.359V278.247z M278.745,43.005L25.791,75.998
				c-7.52,0.981-13.152,7.399-13.152,14.979v202.369c0,8.335,6.765,15.1,15.1,15.1h252.954c8.335,0,15.1-6.765,15.1-15.1V57.984
				c0-4.349-1.873-8.486-5.134-11.355C287.382,43.775,283.048,42.446,278.745,43.005z M265.593,278.247H42.838V104.235
				l222.754-29.052V278.247L265.593,278.247z M609.539,328.831H331.277c-8.335,0-15.1,6.765-15.1,15.101v241.961
				c0,7.595,5.632,13.998,13.152,14.979l278.247,36.284c0.648,0.076,1.298,0.121,1.947,0.121c3.64,0,7.188-1.329,9.966-3.76
				c3.262-2.869,5.135-7.006,5.135-11.34V343.932C624.639,335.596,617.874,328.831,609.539,328.831z M594.438,604.994
				l-248.046-32.359V359.031h248.046V604.994z"/>
		</g>
	</g>
</g>
<g>
</g>
<g>
</g>
<g>
</g>
<g>
</g>
<g>
</g>
<g>
</g>
<g>
</g>
<g>
</g>
<g>
</g>
<g>
</g>
<g>
</g>
<g>
</g>
<g>
</g>
<g>
</g>
<g>
</g>
</svg>
