<?xml version="1.0" encoding="iso-8859-1"?>
<!-- Generator: Adobe Illustrator 16.0.0, SVG Export Plug-In . SVG Version: 6.00 Build 0)  -->
<!DOCTYPE svg PUBLIC "-//W3C//DTD SVG 1.1//EN" "http://www.w3.org/Graphics/SVG/1.1/DTD/svg11.dtd">
<svg version="1.1" id="Capa_1" xmlns="http://www.w3.org/2000/svg" xmlns:xlink="http://www.w3.org/1999/xlink" x="0px" y="0px"
	 width="612.028px" height="612.029px" viewBox="0 0 612.028 612.029" style="enable-background:new 0 0 612.028 612.029;"
	 xml:space="preserve">
<g>
	<g id="xbox">
		<g>
			<path d="M151.983,73.645c38.846-10.335,76.53,5.331,145.135,60.538c2.595,2.084,5.742,3.133,8.89,3.133
				c3.147,0,6.294-1.049,8.889-3.133c66.337-53.407,106.983-69.782,147.219-59.106c1.22,0.326,2.425,0.482,3.63,0.482h0.283
				c7.826,0,14.178-6.352,14.178-14.178c0-5.543-3.19-10.35-7.826-12.688C426.417,16.198,378.837,1.624,313.394,0.007l-15.127,0.014
				c-67.485,1.673-111.832,15.241-158.164,48.388c-5.558,3.984-7.486,11.384-4.58,17.58
				C138.443,72.17,145.376,75.403,151.983,73.645z M298.606,28.362h14.433c38.96,0.964,70.193,6.664,98.704,18.615
				c-30.511,6.947-63.898,25.406-105.722,58.043c-37.457-29.447-70.916-50.968-104.176-59.049
				C229.435,34.6,259.746,29.326,298.606,28.362z M612,298.216c-1.56-56.213-16.715-107.706-45.07-153.117
				c-12.377-19.551-27.306-38.109-44.844-55.647c-4.522-4.537-9.527-9.045-14.872-13.837c-3.785-3.417-9.145-4.508-13.965-2.892
				l-4.834,1.63c-42.873,15.822-85.533,46.573-126.775,91.431c-5.189,5.643-4.452,14.886,1.021,20.245
				c70.079,68.407,137.976,143.264,160.093,227.096c1.573,6.167,3.232,11.881,4.834,17.381c3.8,13.058,7.075,24.329,8.024,37.996
				c0.411,5.869,4.396,10.86,10.01,12.575c1.361,0.411,2.75,0.61,4.125,0.61c4.296,0,8.465-1.957,11.201-5.473
				c40.958-52.698,49.55-97.754,51.081-162.786L612,298.216z M557.232,431.117c-0.794-2.836-1.616-5.657-2.438-8.535
				c-1.517-5.218-3.091-10.633-4.622-16.602C527.346,319.426,461.647,243.974,391.908,175c34.026-34.948,68.562-59.39,102.589-72.66
				c2.665,2.438,5.33,4.948,8.01,7.642c15.581,15.581,29.178,32.495,40.406,50.203c25.604,41.001,39.314,87.716,40.731,138.415
				v14.476C582.525,360.91,577.619,395.389,557.232,431.117z M535.172,492.76c-0.198-0.511-0.368-0.922-0.354-0.766
				c-0.425-2.084-1.049-3.955-1.673-5.728l-0.751-2.368c-0.809-2.41-1.744-4.834-2.68-7.259c-0.78-1.984-1.546-3.983-2.212-5.969
				c-0.185-1.021-0.468-2.013-0.864-2.978c-31.092-75.226-89.801-148.424-174.497-217.61c-0.95-1.078-2.07-2.027-3.289-2.793
				c-11.753-9.697-23.053-18.445-34.551-26.725c-4.948-3.559-11.611-3.573-16.559-0.014c-13.058,9.385-24.683,18.516-35.132,27.575
				c-91.261,73.283-152.536,152.082-182.152,234.24c-1.163,2.425-2.524,5.799-3.133,8.975l-0.497,1.375
				c-0.567,1.531-1.12,3.077-1.488,4.637c-1.106,4.479,0.042,9.215,3.076,12.703c3.573,4.097,7.642,8.18,11.456,11.994
				c57.632,58.142,127.782,88.41,208.75,89.97h15.056c80.685-1.56,150.82-31.828,208.353-89.885
				c3.701-3.658,7.869-7.854,11.541-12.065c3.034-3.487,4.196-8.223,3.091-12.717C536.278,495.808,535.739,494.277,535.172,492.76z
				 M501.969,502.075c-52.953,53.436-114.682,80.117-188.717,81.577H298.89c-74.106-1.432-135.892-28.114-189.199-81.889
				c-1.475-1.475-3.034-3.034-4.608-4.65c0.213-0.809,0.624-1.843,1.106-2.808c0.27-0.524,0.496-1.063,0.695-1.616
				c27.731-77.423,86.085-152.28,173.887-222.785c7.854-6.805,16.177-13.483,25.236-20.26c8.379,6.266,16.758,12.859,25.393,20.004
				c0.354,0.354,0.736,0.695,1.134,1.021C413.756,336.68,469.97,405.98,499.672,476.668c0.283,1.574,0.766,3.049,1.432,4.409
				c0.681,1.942,1.446,3.885,2.197,5.842c0.78,1.999,1.56,3.983,1.886,4.82c0.326,1.318,0.766,2.65,1.248,4.04
				c0.127,0.383,0.298,0.766,0.468,1.361C505.229,498.842,503.557,500.501,501.969,502.075z M84.229,430.691
				c2.126-6.791,4.296-13.752,6.139-21.054c19.607-76.147,75.566-142.214,159.483-224.132c5.487-5.359,5.713-14.106,0.524-19.749
				c-41.256-44.858-83.917-75.609-127.129-91.544l-4.466-1.488c-4.863-1.63-10.194-0.539-13.994,2.878
				c-5.146,4.607-10.222,9.201-14.858,13.809c-0.68,0.68-1.276,1.446-1.8,2.282c-16.375,16.177-30.865,34.14-43.1,53.492
				C16.701,190.51,1.56,242.003,0,298.614l0.014,15.127c1.531,66.535,9.797,109.833,50.741,161.779
				c2.736,3.474,6.876,5.402,11.144,5.402c1.446,0,2.906-0.228,4.338-0.681c5.643-1.815,9.556-6.933,9.825-12.845
				C76.615,455.005,80.146,443.749,84.229,430.691z M62.892,402.648c-1.716,6.848-3.743,13.284-5.714,19.565
				c-0.907,2.878-1.814,5.784-2.694,8.732c-20.273-34.961-24.995-68.646-26.129-117.531v-14.418
				c1.418-51.11,15.113-97.81,40.689-138.741c11.47-18.147,25.193-35.019,40.76-50.118c0.723-0.708,1.375-1.517,1.928-2.396
				c1.857-1.8,3.785-3.601,5.742-5.387c34.225,13.412,68.676,37.812,102.617,72.646C138.174,255.925,83.35,323.211,62.892,402.648z"
				/>
		</g>
	</g>
</g>
<g>
</g>
<g>
</g>
<g>
</g>
<g>
</g>
<g>
</g>
<g>
</g>
<g>
</g>
<g>
</g>
<g>
</g>
<g>
</g>
<g>
</g>
<g>
</g>
<g>
</g>
<g>
</g>
<g>
</g>
</svg>
