<?xml version="1.0" encoding="iso-8859-1"?>
<!-- Generator: Adobe Illustrator 16.0.0, SVG Export Plug-In . SVG Version: 6.00 Build 0)  -->
<!DOCTYPE svg PUBLIC "-//W3C//DTD SVG 1.1//EN" "http://www.w3.org/Graphics/SVG/1.1/DTD/svg11.dtd">
<svg version="1.1" id="Capa_1" xmlns="http://www.w3.org/2000/svg" xmlns:xlink="http://www.w3.org/1999/xlink" x="0px" y="0px"
	 width="785.491px" height="785.491px" viewBox="0 0 785.491 785.491" style="enable-background:new 0 0 785.491 785.491;"
	 xml:space="preserve">
<g>
	<g id="zerply">
		<g>
			<path d="M693.338,599.404c-1.443-5.685-5.577-10.316-11.101-12.348c-5.488-2.014-11.635-1.212-16.464,2.155
				c-23.483,16.589-47.894,24.66-74.655,24.66c-50.709,0-102.969-28.348-158.292-58.353
				c-43.886-23.822-88.982-48.269-135.397-58.853c38.005-41.515,78.611-84.224,118.096-125.756
				c47.43-49.872,96.464-101.436,142.345-152.287c6.682-7.43,13.72-14.753,20.793-22.112
				c41.212-42.958,87.912-91.636,77.935-169.784c-0.605-4.829-3.172-9.194-7.092-12.081c-3.92-2.904-8.837-4.044-13.648-3.225
				c-37.31,6.521-112.108,17.444-193.998,17.444c-74.122,0-133.811-9.408-172.6-27.208c-6.896-3.225-15.038-1.639-20.276,3.831
				c-33.925,35.386-71.36,81.587-59.529,125.33c14.254,52.508,108.01,48.286,187.637,46.236c2.281-0.071,4.526-0.125,6.771-0.178
				c-55.787,72.625-122.283,151.325-198.025,234.391c-7.109,7.804-14.557,15.358-21.987,22.913
				c-42.299,42.977-90.211,91.69-73.801,183.825c1.675,9.407,10.37,15.804,19.992,14.521
				c83.493-11.617,162.407,5.345,233.731,50.156c14.967,9.426,29.47,19.991,44.812,31.163c35.76,26.067,72.75,53.025,116.991,65.355
				c14.932,4.169,30.165,6.289,45.257,6.289c47.466,0,90.603-20.437,118.362-56.072C696.955,693.73,705.524,647.583,693.338,599.404
				z M641.078,707.504c-27.76,35.652-77.738,50.762-125.917,37.381c-38.022-10.619-72.375-35.635-105.587-59.831
				c-15.163-11.047-30.825-22.45-46.826-32.535c-62.522-39.288-130.479-59.208-201.962-59.208c-12.455,0-25.141,0.623-37.88,1.835
				c-5.381-63.092,28.062-97.088,66.317-135.967c7.751-7.875,15.52-15.769,22.932-23.893
				c86.771-95.146,161.552-184.698,222.275-266.178c4.026-5.399,4.668-12.615,1.639-18.638c-3.011-6.022-9.176-9.817-15.929-9.817
				c-13.487,0-28.437,0.392-43.992,0.784c-16.517,0.445-33.747,0.891-50.584,0.891c-83.583,0-99.619-13.042-101.721-20.811
				c-4.971-18.352,9.319-46.041,42.513-82.406c43.208,16.855,102.166,25.408,175.521,25.408c0.019,0,0,0,0.019,0
				c71.93,0,138.479-8.16,180.403-14.717c-0.98,50.816-34.281,85.525-69.328,122.051c-7.323,7.644-14.593,15.234-21.542,22.914
				c-45.56,50.513-94.434,101.899-141.704,151.61c-47.502,49.96-96.643,101.632-141.116,151.111
				c-4.561,5.078-5.826,12.329-3.243,18.655c2.601,6.325,8.57,10.619,15.395,11.028c50.78,3.101,103.805,31.876,155.085,59.689
				c56.803,30.807,115.529,62.664,175.272,62.664c25.407,0,49.052-5.559,71.645-16.944
				C664.723,660.644,657.311,686.639,641.078,707.504z"/>
		</g>
	</g>
</g>
<g>
</g>
<g>
</g>
<g>
</g>
<g>
</g>
<g>
</g>
<g>
</g>
<g>
</g>
<g>
</g>
<g>
</g>
<g>
</g>
<g>
</g>
<g>
</g>
<g>
</g>
<g>
</g>
<g>
</g>
</svg>
